/* XPM */
static char *_176c9c1de2242d7e00bec295bebb4b1VlWkTqR1GXr6PlZv[] = {
/* columns rows colors chars-per-pixel */
"50 50 46 1 ",
"  c #07060B",
". c #09070A",
"X c #08060B",
"o c #0B060A",
"O c #08050C",
"+ c #08070C",
"@ c #09070C",
"# c #09060D",
"$ c #0B060C",
"% c #0B060D",
"& c #0A070E",
"* c #08080A",
"= c #0A080D",
"- c #0E0D1B",
"; c #0F0D1B",
": c #0F0F1B",
"> c #0E0D1D",
", c #0F0E1C",
"< c #0F0E1E",
"1 c #100C1A",
"2 c #100C1B",
"3 c #110D1B",
"4 c #100E1B",
"5 c #110D1C",
"6 c #100E1C",
"7 c #110F1D",
"8 c #120E1D",
"9 c #100D1E",
"0 c #110D1E",
"q c #110E1F",
"w c #1F1925",
"e c #1E1B26",
"r c #1E1A28",
"t c #1F1B29",
"y c #1E1C2A",
"u c #211924",
"i c #201A24",
"p c #211926",
"a c #201A26",
"s c #211B27",
"d c #201A28",
"f c #211B29",
"g c #17212B",
"h c #15212D",
"j c #17212D",
"k c #18202D",
/* pixels */
"@@@@@@@@@@@@@@@@@@ @@@@@@@@@@@@@@@@@@O@@@@@@@@@@@@",
"@@@@@@@@@@@@@@@@@..@@@@@@@@&@@@@@@@@@@@@@@@@@@@@@@",
"6666666666666tssssdss.@,@@,@@@@@@@@@@@@@666666@62@",
"66666666666666-2-wswd.@@O@2@@@@@@@.@@.t166266@6@9@",
"66666666666666666ssws.@@@6@6@%@@@@O.@s26666666@6>@",
"666666666666666662wss@@@6@66%@@%@.tss6666666666q6@",
"666666666666666666dww@%2.6666@@@ssd6;66666q626666@",
"666666666666666666ssd@@66@266666666626666666q6669@",
";66666666666666666-sw@@,266666666666666666@666666@",
"6666666666666666662-s@.666666666666@6@6@6@@666666@",
"22666266666ssws,66>sw@@266666666@6@6@6@6%@@666666@",
"ssss6666,66wwswtsdss6@@@666666666*6@6666@@@@.6669@",
"..@@@@@@@@@@@@@@@@@@@@@.O@@@@@@@@@ @@@@@@@@@&=.@@@",
"@@@@@@@@@@@@@@@@@@@@.@@@.@@@@@@@@.@@@.@.%@@=@%@@@@",
"sswtw=@,6666swswwsusssd6,22suwsuw;6@swssd666666626",
"uwswwdws66q6ssws6662666666666rsdsd6@ws66666666666q",
"wswsssdd66,666f666666666666666,6,sw6sd666666666666",
"66662666666666666666666666666q66,ws,ws66666666666,",
"666666666666666666666666666666q,6ss6w,,66666666666",
"6666666666666666666666662666,6,qwtw6wq,66666666666",
"6666666666666666666666661616666dwsu6ws666666666666",
"6666666666666666666666666666666usww2sws66666666666",
"666666666666666666666666666us,dswss6wsuds266666666",
"66666666666666666666666662-6wsdwsws6wuswsw66666666",
"66666,66666666-6666-666666,6fsssss;,6wssws66666666",
".=@@@@@@@.@@@@@@@@@@%@.@666;662;66266,6;666666>@@@",
",6,6ssswswwssswws@@@@sswdsssssswswdq6swsdsswuwwss6",
",666-6,tuws6,>6ssuw@.swst2;2;26,6666,;666;;swsusuw",
"6666266666q666662ud@@ss666q222:q26666666666666ssuw",
"66662666666,62666,sO%d166:::q:2:q66666666,6666;6us",
"66666666666,666666w@@66666q:q2:q66666666666666,,6s",
"66666666269q6666666@@666662::::266666666666666666w",
"6666666666666666666@.,666666666666666666666666666s",
"6666666666666666666@@666666666666666666666666666,w",
"666666666666666662>@@-266666666666666666616,66662s",
"6666666666666666662@@s666666>6666666666666666qqqww",
"6666666666666666666@@s66666666666666666666666662ws",
"66666666666666666,,@@ws66662666666666666,66666sssw",
"66666666666666666>w@@wswdud;,66,6666666666,67wwsws",
"66666666666666666ws@@swsswsss6666666666666,7wwswss",
"6666666666266,2ssws@%sswswswwwwwsuswutwuswswwsws66",
"@@@@@@@@@@@@@@@@@@.@@.@@@@@.===.@@@@@@@@.=@.@@@@@@",
"@@@@@@@@@@.66666;66;6666wswswtwsO,wstdtuwswwuswsds",
"6666666666>66666swssswswswswssus@ssdwusdswssw66,66",
"66666666q666662666666666,6,66;t6@s666666wswss66666",
"666666666666666q66666666666666w6O2666,666ws6,66666",
"66666666666q666666666666666;66s;@6626q666666666266",
"666666666666626666666666666,66w6@u6>66666666666666",
"66,66,,,qq2:2:6666666666q:6,suu;@d1666626666666666",
"6666yhhhhkk:6666666666662ssssws;@ss>66666666666666"
};
