/* XPM */
static char *_9a994e9c4bb43eea246942ebb163519f6eULcNnRUUku12Z[] = {
/* columns rows colors chars-per-pixel */
"50 50 214 2 ",
"   c #050105",
".  c #0B0301",
"X  c #06030C",
"o  c #09060D",
"O  c #0B090D",
"+  c #130303",
"@  c #1C0A02",
"#  c #13040C",
"$  c #19030F",
"%  c #130B0C",
"&  c #1A0B0C",
"*  c #190602",
"=  c #060511",
"-  c #090612",
";  c #0D0A14",
":  c #0E0D1B",
">  c #120611",
",  c #1C0613",
"<  c #120C15",
"1  c #1C0A15",
"2  c #110E1B",
"3  c #1B0E19",
"4  c #150718",
"5  c #0D101C",
"6  c #121116",
"7  c #1B1214",
"8  c #13101B",
"9  c #121119",
"0  c #12101D",
"q  c #13111E",
"w  c #14101F",
"e  c #16121D",
"r  c #16141E",
"t  c #13111D",
"y  c #18161E",
"u  c #1C121D",
"i  c #1B191E",
"p  c #230B09",
"a  c #270904",
"s  c #340E05",
"d  c #281705",
"f  c #3D1201",
"g  c #371A0B",
"h  c #230F1B",
"j  c #280C1A",
"k  c #300F16",
"l  c #2F1314",
"z  c #23131E",
"x  c #2B131D",
"c  c #2B1811",
"v  c #34121E",
"b  c #3D191A",
"n  c #3F1715",
"m  c #29200F",
"M  c #392308",
"N  c #34211A",
"B  c #0D0F21",
"V  c #0D0F20",
"C  c #110E20",
"Z  c #120E21",
"A  c #1D0D27",
"S  c #121121",
"D  c #151321",
"F  c #191521",
"G  c #1D1722",
"H  c #1B1623",
"J  c #1B1822",
"K  c #1D1A22",
"L  c #1E1A25",
"P  c #1E1C25",
"I  c #1D1A25",
"U  c #1E1A28",
"Y  c #1E1A2A",
"T  c #1D1C29",
"R  c #201521",
"E  c #2C1320",
"W  c #211B26",
"Q  c #211E26",
"!  c #211B26",
"~  c #2A1C27",
"^  c #211D29",
"/  c #211D2A",
"(  c #2B1F2A",
")  c #351222",
"_  c #3C1C24",
"`  c #3E1D2A",
"'  c #381422",
"]  c #291D35",
"[  c #3B1E30",
"{  c #290D24",
"}  c #1C232B",
"|  c #22202C",
" . c #2D2029",
".. c #322B33",
"X. c #392839",
"o. c #263230",
"O. c #35393C",
"+. c #312830",
"@. c #411A03",
"#. c #421A08",
"$. c #4A1D08",
"%. c #431615",
"&. c #451619",
"*. c #41191B",
"=. c #42230C",
"-. c #4C240A",
";. c #452010",
":. c #4F3A13",
">. c #5A3A13",
",. c #461B2A",
"<. c #491A2C",
"1. c #451925",
"2. c #541F2E",
"3. c #541F31",
"4. c #4B202F",
"5. c #46202D",
"6. c #54222E",
"7. c #582E2B",
"8. c #4C3228",
"9. c #482937",
"0. c #542232",
"q. c #5C2C38",
"w. c #6C3A3B",
"e. c #6A3834",
"r. c #753C3E",
"t. c #662E37",
"y. c #534016",
"u. c #584428",
"i. c #61463B",
"p. c #6C5939",
"a. c #3C3241",
"s. c #3D3D4A",
"d. c #353544",
"f. c #3B3750",
"g. c #2E3746",
"h. c #442C42",
"j. c #512E42",
"k. c #4C3243",
"l. c #483649",
"z. c #52364C",
"x. c #5E3C4C",
"c. c #543946",
"v. c #463A57",
"b. c #6F3D43",
"n. c #693541",
"m. c #723B43",
"M. c #773F4A",
"N. c #41414D",
"B. c #4E4D5A",
"V. c #454851",
"C. c #564A59",
"Z. c #5A5B5F",
"A. c #634054",
"S. c #64585E",
"D. c #765C43",
"F. c #6A7142",
"G. c #744F61",
"H. c #6C5462",
"J. c #7E576C",
"K. c #576572",
"L. c #626575",
"P. c #6A6575",
"I. c #6B6D7B",
"U. c #766777",
"Y. c #6C717A",
"T. c #726D72",
"R. c #974025",
"E. c #8F4D35",
"W. c #8C5937",
"Q. c #945D34",
"!. c #A24C35",
"~. c #93622A",
"^. c #8C7438",
"/. c #A37331",
"(. c #B57A3E",
"). c #83574C",
"_. c #9B7045",
"`. c #8D6E59",
"'. c #8E7E5C",
"]. c #9F7656",
"[. c #AE6F4E",
"{. c #A77550",
"}. c #B76349",
"|. c #AF7164",
" X c #808B3F",
".X c #B48F34",
"XX c #9C9F52",
"oX c #928857",
"OX c #A38B4D",
"+X c #AA9640",
"@X c #A88955",
"#X c #B08753",
"$X c #B09F51",
"%X c #A0AD5B",
"&X c #BFA159",
"*X c #AD9662",
"=X c #AA8C72",
"-X c #BBB366",
";X c #C5944D",
":X c #CDA44D",
">X c #E2B44A",
",X c #E5B954",
"<X c #CF9567",
"1X c #C3B37D",
"2X c #D0A779",
"3X c #567280",
"4X c #6C7686",
"5X c #797686",
"6X c #757D90",
"7X c #846D81",
"8X c #6A818F",
"9X c #6F8B95",
"0X c #9F96A7",
"qX c #A69BA1",
/* pixels */
"o o o o o o o o o o o o o O o o ; o o X o 6   O o O o O O o o   o   O   O O o   O O O O o o o o o O ",
"o o o X o o o o o o o o   O o - o - - o o     o X O ; o X O O O . O O o   O o o O     O o o o o O O ",
"6 9 : 9 : 9 6 6 : 6 2 9 y i J P F P P P i 6 O < X O - - O     O o o - - O O O o 2 6 6 6 2 ; < ; O O ",
": 2 : 9 : 9 : 5 2 : : : 9 5 9 0 w P P P i o O o O - ; ; O o O O - - X   o ; 5 r 2 9 6 5 < : - ; % o ",
": : : 2 : : : : C C 2 C 2 2 2 : w K I W P o o o O ; 2 - ; X o o X - - : 2 D 3 2 2 : 2 2 : ; : - 6 O ",
"C C C C 9 2 S 2 : : : 2 C C V : 2 2 I K P X o o ; ; < : ; O X o - 2 H U F Z : : 2 2 2 2 Z 2 C 2 9 o ",
": : : : : V : : S S S 2 : : : : 2 2 ^ I | O o < : ; ; 2 : o o o H Y H 3 : : 2 D 2 2 2 2 2 2 Z 4 6 X ",
"C : V : C : 2 V V : : : V S S 0 2 ; ^ J i o o 2 : ; 2 0 9 : 9 9 2 2 Z 2 2 2 2 : 2 2 2 2 Z 2 Z 2 : O ",
"2 5 2 : : 9 : : : : : : : : 2 0 2 2 2 J | ; o < 3 : 2 2 2 < 2 < 2 9 2 2 2 9 2 9 Z ; o 2 3 2 : : 6 O ",
": 0 2 2 : 6 2 9 0 9 0 9 9 5 : ; 2 9 2 r 7   X 2 2 : 2 2 2 2 2 ; 9 ; 2 o 2 - < - 2 ; - 2 S 9 2 6 6 O ",
"5 6 2 9 2 ; : 2 : 9 w i K P J w ; 2 6 i y o - r 2 2 2 2 9 < 2 2 ; ; o 2 o 6 - - X - - : : 2 2 < 6 o ",
"P J J i r 6 6 2 ; : 9 F P | P J ^ ^ P | y o X o 2 2 2 : : 2 < 2 ; o < 2 2 < r 2 - - - ; - 2 2 2 % O ",
"o o o - o X X X o o - - - - - o o - X o o   o - - = = - o - X X - o - X X X o X X - - X X - - - - o ",
"- o - ; - o - ; - o X X o O o - - - o - O o O o X - - - ; ; - o o - X O X 2 X - ; ; - - - o - - - O ",
"^ W W W F < ; 2 9 2 2 w K W W W P P K W i i i 6 2 3 w F J I I J F y 2 - ^ J i K w 2 2 2 w 2 2 9 : 9 ",
"W U ^ ^ W G G W 9 : < 3 G ^ W G 6 6 2 9 ; 6 r ; 2 : : 2 r J P W W ^ - ; I W 2 w w : : 2 2 : ; 2 2 2 ",
"Y Y U U U U U T : : 2 2 2 2 z < 6 ; V B 2 2 % 6 6 ; : C : - 9 < : W W < ! R 3 : C V V V : 9 2 < 2 2 ",
"Z B 2 2 2 2 2 : V : C : 2 < u > 6 - : B : > 7 % 6 5 Z Z 2 < > 1 ; F i < i z e 2 2 B B B 5 : 2 6 2 V ",
"2 Z 2 2 2 2 : 9 2 : C 2 3 < < > F ..] A 4 # & & O < 4 > 1 2 1 W d./ 9 2 Q 7 2 2 V B B B 5 : 2 2 2 2 ",
"Z : 2 2 2 : 2 : C B : : 3 < < u ..U.v.{ v k l l x h ) { j v ) X.U.d.2 X u < ; w : : B : : : 2 9 2 : ",
": B : : 2 < : : 2 : : 2 2 < , ~ L.qXH.9.b.r.i.w.b.w.M.M.w.w.q.A.0XI.d.: G W 3 ; : 2 : V 2 2 2 2 2 : ",
"Z 2 2 4 2 6 2 9 : 2 : : 2 % % ..Z.T.c.q.m.r.t.7.0.4.q.t.m.m.q.j.5XL.d.: H / G w 2 2 : 2 : 2 2 2 : 2 ",
": : 2 2 2 : : : : 0 2 2 2 < > O.K.I.c.n.S.S.z.9.N.V.9.9.G.J.x.l.P.P.s.S U U G W G D 2 2 2 2 0 2 2 2 ",
"2 2 2 2 2 6 2 : : 0 : 2 < 2 > l.8X8Xj.c.Y.Y.v.v.8X9XB.h.U.7XC.h.I.6XB.: D Y W I ^ G 2 2 : 2 2 : 2 2 ",
"2 : 4 2 3 2 2 2 : : : 5 2 2 3 w g.L.z.[ | } ] f.3X9XC.~  .~  .a.P.s.r - 9 J ^ I W F 2 2 2 : S : 2 2 ",
"- - - - = = X = = = = - O o # o S ..X.j . . + 7 o.O. .p + + %  ...K : : 0 0 D S w 2 1 2 2 : : = - - ",
"B 2 Z Z F I T T Y Y U U G u u 7 5 t   c u.u.:.:.:.-.-.$.f 8._ + & < < ; : F Y D G H U W ^ U T I D w ",
"B : : : 0 0 F F Y Y H D 4 < < < 7 O * D.-X1X-X&X$X/.~.Q.E.|.).g @ & 7 < - 9 F 0 C 2 F F H G U T / U ",
"Z Z 2 2 : : : : C C 2 2 2 < , < % @ y.^.XX-X+X.X>X>X:X;XR.!.[.{.d @ # , 2 : B : 2 2 2 2 Z F H Y U U ",
": : : 2 2 2 0 2 : : 2 C 2 ; 1 % N D.#XOX X%X%X:X,X,X;X(.!.}.<X2X`.8.+ % 3 2 : B V : 2 : : : : 2 I W ",
"Z Z C 2 : 2 2 : B C 2 2 2 1 1 & 8.=X=XoXF.F.oX*X#X#X_.W.Q.{.@X@X=Xi.p + > : : V Z Z 2 Z 3 : 2 2 D H ",
"B 2 2 2 2 2 : 2 : : Z : 2 2 < p a ;.b g m d M M f @.@.s f f g M ;.s p & < : V V B : : 2 2 C 2 2 2 F ",
"2 : 2 2 : Z : Z : : C 2 4 < 4 x 1.%.n *.b b n &.&.%.&.&.&.%.%.#.&.1.v p # 2 5 5 : 5 C C 2 : B 2 2 H ",
"2 2 2 2 Z Z Z B : B 2 2 3 2 < x 0.6.6.6.6.6.6.6.6.6.6.6.6.6.6.6.3.0.` h < 9 5 5 5 5 B : : Z Z 2 3 G ",
"2 2 : 2 Z 2 V 2 Z : 2 2 2 2 < x 4.6.2.2.6.6.2.2.2.2.2.2.2.2.3.2.0.9.) , # 9 5 5 5 : B : Z 2 : 2 D G ",
"2 2 Z : 2 Z 2 2 B : 2 2 < 1 > x <.2.3.0.0.0.3.6.3.0.3.0.3.0.3.0.<.,.) , % 2 5 : : : 2 C : 2 : : I W ",
"2 : 2 2 2 2 2 : 5 : 2 2 2 4 > z ` 1.,.<.<.1.<.,.,.,.<.,.<.,.,.<.5.` x , < 6 6 5 : 2 3 4 2 2 2 0 P W ",
": < 2 2 2 : 2 2 2 : 9 : 1 < < 3 ) ) ) ) ) v v ) ' v ' ) ' v ) ) E E h < < 2 : 2 2 2 2 : 2 4 F I P W ",
"2 : 2 < 2 2 2 2 9 : 9 : 2 3 # 3 , , j $ , , h , p , , , , , , $ 1 , , < < < < 2 3 2 2 < w J P Q I I ",
": 2 < 2 2 < 2 2 5 : 9 2 6 9 > < 1 u 3 > > 3 ! z R R A z 3 3 1 4 < 3 < < < 2 : 6 4 2 1 9 K W P P P I ",
": 2 2 2 4 2 2 2 0 9 5 5 : 2 9 z G ^ G ; ; G W G W K W I ^ W I W W ! K W T H W G W W W W W R G G 2 2 ",
"= - - - - - - = = = = - o o o 2 - - - X X - - - = - = = - - X - o - o - - X 4 : - X - X o o - ; - - ",
"- - - - : - - - = - ; : 2 : > 2 2 : 2 Z 2 2 : 2 W ^ Y Y ^ U W U - w J P I F Y G ~ W W ^ ! ! W I U T ",
"5 5 2 2 2 4 2 2 : : : 5 2 5 3 9 / U W / / U Y W Y U H U G U U Y - J ^ ^ | T / G G U U U R 2 2 2 2 : ",
"0 5 2 2 2 2 2 2 9 : : : : 9 2 2 2 2 2 2 2 4 2 2 2 4 2 Z 3 C H C - D S : ; : 2 2 Y } | T H w 3 : 2 2 ",
": 5 : 2 2 2 2 : 0 5 5 S 0 0 2 : 2 0 Z 4 2 Z Z 2 2 2 2 Z 2 S Y 2 - D 2 ; 2 2 2 2 0 D H D 2 : 2 2 C : ",
": 0 2 2 3 C 2 0 : : 5 : : 2 2 : : 2 0 : 2 2 0 : 2 S 2 D : 2 T 2 X 0 2 2 D 2 : : : B B 0 : 3 Z Z 2 2 ",
"0 : 2 2 2 2 : 2 : 5 : V : 2 2 2 S : : S : : : : : 2 : 2 : : T : - F w 2 0 ; : 0 : 5 : : : Z Z 4 2 : ",
"2 0 0 : S : 5 : 5 5 B = V 5 2 S 2 2 0 : 2 : 0 : : S 0 S H T W 2 = I D 2 2 2 Z 2 : : 2 2 2 : C 2 2 : ",
"2 : 2 : Y T T } T T } 5 B : : : : 2 : 0 : 0 : 2 2 U I H U ^ U 0 - I H : C 2 2 2 2 : 2 : 5 2 2 C 2 C "
};
