/* XPM */
static char *_3a74ea4ba3d42d29ef4c85f09bb7e86XDJDvdPuw5pSHScf[] = {
/* columns rows colors chars-per-pixel */
"50 50 237 2 ",
"   c #030204",
".  c #0C0303",
"X  c #040905",
"o  c #0B0906",
"O  c #05040B",
"+  c #0A050D",
"@  c #040A0D",
"#  c #0B0A0D",
"$  c #140302",
"%  c #1B0101",
"&  c #1D0A05",
"*  c #11050B",
"=  c #1E030A",
"-  c #120B0D",
";  c #190B0B",
":  c #120B04",
">  c #0B100E",
",  c #1B100D",
"<  c #11100E",
"1  c #050412",
"2  c #0B0612",
"3  c #040A13",
"4  c #0C0B14",
"5  c #0D0719",
"6  c #0E0C1A",
"7  c #070E1E",
"8  c #110514",
"9  c #110C15",
"0  c #1A0B14",
"q  c #140619",
"w  c #110D1B",
"e  c #1A0C1C",
"r  c #180614",
"t  c #0C1115",
"y  c #0D111B",
"u  c #071216",
"i  c #131216",
"p  c #13111C",
"a  c #19141D",
"s  c #141A1E",
"d  c #1B191D",
"f  c #1C1614",
"g  c #240201",
"h  c #2A0100",
"j  c #280908",
"k  c #310900",
"l  c #3B0D0C",
"z  c #350804",
"x  c #2B1308",
"c  c #311502",
"v  c #381508",
"b  c #2B0D15",
"n  c #220B16",
"m  c #2D1512",
"M  c #231D1B",
"N  c #271617",
"B  c #341217",
"V  c #341A1E",
"C  c #361617",
"Z  c #340F17",
"A  c #26211B",
"S  c #3E2416",
"D  c #070E20",
"F  c #0E0E21",
"G  c #130D21",
"H  c #1A0D21",
"J  c #0D1121",
"K  c #151321",
"L  c #1B1523",
"P  c #1D1A24",
"I  c #1C162B",
"U  c #17192A",
"Y  c #1D1B29",
"T  c #161827",
"R  c #1E1A31",
"E  c #231525",
"W  c #211B25",
"Q  c #221629",
"!  c #211D2D",
"~  c #221C2A",
"^  c #2B1B22",
"/  c #231F32",
"(  c #321B25",
")  c #182125",
"_  c #242225",
"`  c #24212C",
"'  c #2B2627",
"]  c #242231",
"[  c #2B2533",
"{  c #2D2A34",
"}  c #2E2B3A",
"|  c #262636",
" . c #312635",
".. c #322C34",
"X. c #312C3A",
"o. c #33233E",
"O. c #34313D",
"+. c #38323E",
"@. c #400706",
"#. c #471909",
"$. c #420E12",
"%. c #481815",
"&. c #501D1C",
"*. c #4E211C",
"=. c #592A1B",
"-. c #5D321F",
";. c #561D23",
":. c #432A28",
">. c #562925",
",. c #4E2E33",
"<. c #543535",
"1. c #4E3426",
"2. c #602F28",
"3. c #653829",
"4. c #653F38",
"5. c #743629",
"6. c #6F2D13",
"7. c #7A432F",
"8. c #62463C",
"9. c #7F4B3D",
"0. c #302F41",
"q. c #373443",
"w. c #3B3444",
"e. c #3C384A",
"r. c #413C4C",
"t. c #413946",
"y. c #5E3B41",
"u. c #613C43",
"i. c #4C4457",
"p. c #52465B",
"a. c #644143",
"s. c #7B4A49",
"d. c #7A534C",
"f. c #774C54",
"g. c #6D515D",
"h. c #7D5458",
"j. c #823E35",
"k. c #87493A",
"l. c #8A493C",
"z. c #954B38",
"x. c #9C543B",
"c. c #A14E2C",
"v. c #A35D35",
"b. c #CF5935",
"n. c #DA683D",
"m. c #DE703F",
"M. c #8E3F44",
"N. c #834B45",
"B. c #8B4C43",
"V. c #874748",
"C. c #974D47",
"Z. c #83534D",
"A. c #8B524B",
"S. c #875545",
"D. c #945247",
"F. c #874D52",
"G. c #845355",
"H. c #9E5F50",
"J. c #A8564A",
"K. c #B55F4E",
"L. c #AE5652",
"P. c #A5674B",
"I. c #B76752",
"U. c #BA7758",
"Y. c #A96651",
"T. c #B77563",
"R. c #BB7775",
"E. c #DC5E45",
"W. c #D76443",
"Q. c #DB6B44",
"!. c #DD674B",
"~. c #DC6C49",
"^. c #D56B48",
"/. c #DC724A",
"(. c #D87349",
"). c #CC6D54",
"_. c #C86B59",
"`. c #DA6B53",
"'. c #DB6C59",
"]. c #D56A57",
"[. c #CC7155",
"{. c #CB745C",
"}. c #CA7A59",
"|. c #DE7352",
" X c #D37458",
".X c #C76E4E",
"XX c #E16B43",
"oX c #E16A4B",
"OX c #E4684D",
"+X c #E4724A",
"@X c #E8784B",
"#X c #F37F4E",
"$X c #E36755",
"%X c #E47253",
"&X c #EB7E51",
"*X c #E77957",
"=X c #F47955",
"-X c #CA6C67",
";X c #C66E6A",
":X c #D16C63",
">X c #C47364",
",X c #CA7461",
"<X c #C8786A",
"1X c #D47062",
"2X c #D7726D",
"3X c #C07572",
"4X c #E9823F",
"5X c #DC8A5D",
"6X c #CC845E",
"7X c #EB824B",
"8X c #EF8745",
"9X c #F68B4D",
"0X c #F4844D",
"qX c #E68555",
"wX c #EC8354",
"eX c #EC845A",
"rX c #E78B5C",
"tX c #EA8859",
"yX c #F58A52",
"uX c #F98B52",
"iX c #F2855C",
"pX c #F68C59",
"aX c #FA8556",
"sX c #CA836A",
"dX c #DC8C63",
"fX c #DE8C6C",
"gX c #D78464",
"hX c #D9926E",
"jX c #CB8975",
"kX c #DA8877",
"lX c #E38D61",
"zX c #E88867",
"xX c #F38C63",
"cX c #E49266",
"vX c #E3906C",
"bX c #E59177",
"nX c #E98E71",
/* pixels */
"+ # 2 + + + + + 4 O . + 8 # + + + # . 2 + 8 1 5 5 1 @ @ @ + + + + # + o # # + + + O # + + + + # o + ",
"O O + 2 @ + 2 O   + 2 + O + 4 + # @ . + 8 2 O 2 O 1 + O @ # 8 + # + + O O   + 4 2 + 2 + 2 + @ + # O ",
"6 6 w i i 9 6 i p p w w a L W W s P ! W d # # p @ # i # O @ O 2 + # + + 2 6 4 O 9 w 6 6 9 4 2 4 # # ",
"p p 6 i 6 w 4 w w w 9 4 8 4 L X.{ [  . ...W a d < _ 0  .` X { { { ..` p 2 w w 4 w w p i w w 9 4 9 # ",
"w w 6 G 6 w 5 6 6 w w 5 q L { q.q.e.r.p.r.( L E 0 n n Q P p ! X.q.+.X.} Y 6 6 L 6 w w w 6 w w 4 6 # ",
"w w w Y L K 6 w G 2 q L [ q.r.w.p.e.0.Q P w 5 w N ^ E E w 3 I I P Y ] } [ Y G 6 6 G w G p L L p 9 + ",
"6 w w ! L L 5 w 6 2 Q w.w.w.r.r.| | Q I i > 3 7 w 0 Q q X t 6 / Y Q Y L ! / Q 6 w K G w K L L p i + ",
"6 p 6 ! K L 6 w 5 5 [ w.}  .X.! R U q 4 X > 3 3 2 2 + 2 @   6 G K I Y Y Y Q ` ` w w w 4 6 w i 4 4 + ",
"6 6 w Y 2 6 2 O 4 ` { { X.[ ~ P W + * . o X @ @ 4   w   # # . # 4 p P P Y Q Y Y ! K 6 6 2 + 4 6 i # ",
"p 4 9 p 1 2 2 4 p Y ! ! [ a W 0 . + . 9 # X X @   4 2 w + . o . # i a Y P Y Y Y Q w w K L Y a i i # ",
"i t a a a @ O 2 P Y N  .W d E + * * f   # O # # 4 + 1 1 + + - . + 8 i a L Y P Y ! i w i L ` Y 9 9 # ",
"P T a a a 2 O a W W W X.W W p 2 + O   # - . $ . # O 4 2 4 2 + . + # 6 i d Y W W ` P p 6 4 i i 2 9 # ",
"2 t + 4 6 + O P P P ..d ^ L 9 2 4 4 # . o $ % g o @   X 2 O 2 @ + @ + 4 i L Y Q L L Y w 6 6 w 2 # + ",
"X 2 # 4 6 2 O a P ' [ p W p + 2 1 O $ % -.-.5.3.. o S *.j - + 2 + + + + i L Y Y Y P I K w G w 2 2 O ",
"Y P L 9 i 2 i ! Y { W Y d w O 2 3 . h v.hXgXnXjX% : U.Y.7.>.; O + # # 2 6 p L Y ! Y Y G w G G 6 w i ",
"Y Y Y 6 p + 4 p P { d ` P O 2 + * g U.tX(.%X*XbXc % dXrXfXH.a.* + @ 2 1 4 w w L L Q ! L 6 6 w G w w ",
"R U Y K 9 + 4 w d .._ T ) 3 + $ h sX`.!.W./.^.fXc % 5XwXzXK.V.f.. 3 O 3 5 K q H Q E W K p y 5 w w w ",
"G G 6 6 4 O 2 q 2   4 O 3 O $ g sX[.!.=XiXeX/.[.v $ cXpXeXnXz.N.= . O 6 1 1 8 2 8 + 2 @ 3 y J K p w ",
"e w i y 4 - 9 d E t.[ / Y 0 h U.{.^.XX0X7XpX=X[.v g }.0XxXlXnXz.N.j % * + K P Q t.{ ` P 6 w 6 6 w 6 ",
"r 9 9 t t o 9 w 8 w.R / H $ z _.).*X0XuXyXyXn. Xm % {.+XtXqXrXc.B.s.j $ 8   6 p O.W P a 6 w G G G w ",
"0 6 u u 3 X # 6 L } U U W % x.xX%Xb.uX8X9X0XQ.,XV % ,XQ.Q.pXpXcXl.d.8.&   @ t 3 +.W E L w 6 w 6 6 F ",
"i i y y 4 4 6 i 5 X.U U A % v.wXOXXXuX9X0XaX$X;Xb g {.oX+Xm.7XrXI.N.8.: o @ s y ..E W L w p F 6 p 6 ",
"q w 7 y 4 2 5 e 9 ..P P , 1.5XpXW.+Xn.aXaX=X$X;XC h 1XE.OXQ.eXzXbXj.G.S . @ 3 p ! L W K w p w w w w ",
"H G F F w 5 w w q W W M f 3.dXtXwX/.oXoXOX`.:XR.Z g >X$XoX~.|.(.kXD.Z.<.$ # 6 w W Y Q K w w q w w w ",
"G q J J K 3 D D y { M m j 3.bXrXwXQ.~.`.'.L.%.% * & z ,X`.!.|.).kXV.G.,.+ + 5 G Q ! Y L w 9 a 4 w w ",
"5 5 5 6 6 3 D J s P M A x 8.jXvXvXfX>X-X>XH.N i _ ' m %.sX{._.<XT.N.d.:.0 2 q G I L T s 6 2 w 4 2 2 ",
"5 6 6 i 9 q 6 F 6 _ d f < : c c k l $.$.z k . ` A s A $ b $.l z v x m : + + H H Q Q Y a y t 9 L K p ",
"6 i i d 0 0 5 F w ' M d A < v #.*.%.&.#.#.c $ K # i i & C l &.;.*.v m n + + H w Q Q W p 9 y 6 ! ! Y ",
"9 4 i T f i 6 F i P P ^ ( >.;X:X_.1X_. X6XP.C . E * g v <X,X_.:X;XV.s.<.* 4 w 6 ! W ` p 4 6 4 Y W P ",
"9 i 6 a 9 9 6 y 6 Y W N b ;.2X!.$X$XwXtXrX}.S.a.n % S.P.[.`.OX$X2XM.F.u.$ O y i L P M 9 2 O 1 w P W ",
"p 6 J y q 8 8 w w Q Y d ^ 2. X=X!.W.uX8XyX(.>XF.B g hX5X(.].$X'.-XV.d.:.# X t t P W E N p L T K a Y ",
"y 6 J 6 q + 8 8 2 4 Y P n >.1XxX`.%XyX8XyX@X).D.Z g dX7X^.^.`.].;XA.8.& X @ 3 @ + 8 2 8 6 K U 7 6 a ",
"6 7 s w 9 + 8 8 1 2 6 O : g z.vX`.W.iXxX=X@X[.D.B g cX0X7X~.!._.3Xs.u.j * O L Y +.{ ! L q w i 7 w L ",
"K 6 6 4 + + e E / q.] ..j g S.kXzX+XoXXXXXoX{.l.V % rX0X@XW.%X1XV.G.u.= + 9 6 y O.` P L w w w w w L ",
"G G y 9 O 2 q H G 0.] i M x h T.zXyXn.n.@X&X{.A.n j cX7X@X/.]._.F.f.= . 9 w 4 y | Y Y a 9 6 w p p W ",
"6 6 6 i # + 2 6 F | U Y A m % 7.dXqX(.n.XXpX}.N.( % dX7X+X!._.z.s.,.g r . 6 y P ) P W a i w 6 6 P W ",
"G G 6 i 2 2 6 i F | T ` i , & g 6.dXzX/.@XxX,XB.V g cXwX|.).L.C.h.% . * + p 4 } P P P 0 4 p 6 p Y W ",
"H G y i @ 4 2 p G U / U s _ * $ g jXsX.X^.eX<XV.Z % fXzX_.J.F.f.b * 0 + 9 a T Y P W L 4 2 p p T P W ",
"q w w P > # @ 4 w 5 Y / P P i * $ g #.T.,X{.;XA.z g 3XI.k.G.g.9 . -   + 4 4 Y Y Q P e 2 4 i w Y Y P ",
"G w w P @ t @ 9 w G Y Y Y Y y @ . : $ k =.R.R.F.= g N.N.d.A + 6 +   + w 1 ` T Y ! L w 9 w 6 6 Y Y Y ",
"w y t d o > @ 4 q L Q Q Q ! Y 3 + o + $ % % % $ # # $ $ $ * + + 2 O @ 6 p ] Y Y W p 2 9 w w p K i w ",
"1 4 2 d # # O # 0 q H Q Q Q Y p # # + + * + o X @ @ # X   # # + @ X 6 3 Y ) Y W W 9 + # 9 6 6 p 1 2 ",
"3 2 4 d @ i # # w 8 0 E Q E Y a 9 + 1 1 + # # . 4     o #   . + # @ y i ! Y P Y a 6 + 6 p p p K Y Y ",
"t y # ) + d 9 4 4 9 e e a W ! T P a 6 1 + # o .   > # @ @ O 9 + 4 i i L P ! K L 4 # + 4 w 6 F K w 6 ",
"y s 4 W + L i 4 4 6 r 9 0 E ! P ~ Q e q + + . . . o O   9 q 8 r w ! P P W [ L 4 2 @ 4 y 6 6 6 G K 6 ",
"7 y w ~ q E w 7 6 1 2 w e L L W ! W E d w 0 2 4 - . 9 2 w p 9 i.` ` ! Q ! p q + + 4 i p p 6 F G 6 G ",
"7 y q E q L p y y 3 4 w w w a T P d ) P Y P I I H q [ 0.r.p.} ` ~ W L Q Q 8 2 2 O 2 6 4 6 6 5 G w 6 ",
"F G w H q G 6 y 7 7 y w 4 t a t t t i 9 w w F G G G F G 4 y Y 6 2 E w a w w p 4 i 6 6 6 w w F G F p ",
"w p w 6 K 6 7 y y J K 5 y 6 w K 6 y y w w 6 G F 6 K w G L ! Y y + P K w w w w w 6 w w w y w w G 6 p ",
"6 w G w Y Y Y Y U ) ) y K 6 6 6 6 w w w 6 p 6 w w Y L P Y Y Q p 2 P L w w w G w w w 6 w 6 w F w 6 6 "
};
