/* XPM */
static char *c0b5846a368e4537c301699e315b9776JIkugDWdd9KB21sE[] = {
/* columns rows colors chars-per-pixel */
"50 50 254 2 ",
"   c #040304",
".  c #0B0405",
"X  c #0B0A04",
"o  c #05050B",
"O  c #0A050C",
"+  c #06090C",
"@  c #0B0A0C",
"#  c #060904",
"$  c #120402",
"%  c #1B0200",
"&  c #130C02",
"*  c #1C0B01",
"=  c #13050C",
"-  c #1B040A",
";  c #130D0D",
":  c #190B0C",
">  c #131302",
",  c #1B1102",
"<  c #12110D",
"1  c #1C1404",
"2  c #050512",
"3  c #0A0512",
"4  c #060911",
"5  c #0C0B14",
"6  c #0D051B",
"7  c #0E0D1C",
"8  c #060618",
"9  c #110414",
"0  c #190415",
"q  c #120D15",
"w  c #1B0C15",
"e  c #13051B",
"r  c #110D1C",
"t  c #1A0C1B",
"y  c #0E1116",
"u  c #0D111C",
"i  c #081417",
"p  c #121114",
"a  c #1B1414",
"s  c #12111C",
"d  c #1B141C",
"f  c #1E1C1C",
"g  c #0F1305",
"h  c #230302",
"j  c #2B0202",
"k  c #240B01",
"l  c #2B0C01",
"z  c #24030B",
"x  c #29080A",
"c  c #320100",
"v  c #3B0000",
"b  c #320C01",
"n  c #3A090A",
"m  c #231102",
"M  c #291606",
"N  c #3B1302",
"B  c #361704",
"V  c #260816",
"C  c #380313",
"Z  c #261819",
"A  c #371617",
"S  c #0E0D22",
"D  c #070421",
"F  c #130C22",
"G  c #1A0D23",
"H  c #140A26",
"J  c #0B1122",
"K  c #091622",
"L  c #131223",
"P  c #1B1524",
"I  c #1D1A24",
"U  c #1C1B2A",
"Y  c #171928",
"T  c #1D1E30",
"R  c #231623",
"E  c #221B24",
"W  c #201529",
"Q  c #221B2B",
"!  c #2B1A2A",
"~  c #261933",
"^  c #290D22",
"/  c #1C2227",
"(  c #28232A",
")  c #440001",
"_  c #4B0102",
"`  c #480A07",
"'  c #580600",
"]  c #4C1300",
"[  c #431300",
"{  c #551712",
"}  c #660200",
"|  c #6B1809",
" . c #761B06",
".. c #781B14",
"X. c #6E090A",
"o. c #5A2602",
"O. c #572518",
"+. c #5E3A1C",
"@. c #4E290F",
"#. c #672702",
"$. c #782603",
"%. c #693908",
"&. c #763806",
"*. c #77251A",
"=. c #683B17",
"-. c #763916",
";. c #771D22",
":. c #6E1B2D",
">. c #4A2927",
",. c #542729",
"<. c #5B3B28",
"1. c #513335",
"2. c #68262A",
"3. c #752626",
"4. c #653B27",
"5. c #773D27",
"6. c #683235",
"7. c #441527",
"8. c #594417",
"9. c #7B4209",
"0. c #6C421A",
"q. c #734316",
"w. c #5C4528",
"e. c #674327",
"r. c #764525",
"t. c #7C4236",
"y. c #462542",
"u. c #65535F",
"i. c #990B05",
"p. c #8C1C03",
"a. c #881A07",
"s. c #951708",
"d. c #871916",
"f. c #931414",
"g. c #9A1513",
"h. c #951A15",
"j. c #990C11",
"k. c #A70909",
"l. c #B60500",
"z. c #A61405",
"x. c #B31200",
"c. c #A61618",
"v. c #B31C1D",
"b. c #842302",
"n. c #872808",
"m. c #922804",
"M. c #8A3807",
"N. c #97360A",
"B. c #862C16",
"V. c #9B2817",
"C. c #883716",
"Z. c #973613",
"A. c #A5280A",
"S. c #AB2515",
"D. c #AC2A1C",
"F. c #A72519",
"G. c #B32718",
"H. c #AB3515",
"J. c #8F1623",
"K. c #B01C24",
"L. c #992624",
"P. c #863827",
"I. c #933333",
"U. c #AB2A25",
"Y. c #B32425",
"T. c #B42923",
"R. c #B5292C",
"E. c #B63A2E",
"W. c #C53B03",
"Q. c #D63116",
"!. c #E32C18",
"~. c #C83529",
"^. c #E03E33",
"/. c #CA0900",
"(. c #884106",
"). c #884018",
"_. c #974B09",
"`. c #BA4505",
"'. c #AC4C13",
"]. c #92483B",
"[. c #AB452D",
"{. c #CF4000",
"}. c #C5793F",
"|. c #994A44",
" X c #B47A4E",
".X c #917876",
"XX c #AF6056",
"oX c #C7794E",
"OX c #FFEA3D",
"+X c #9C955F",
"@X c #B68349",
"#X c #A48456",
"$X c #AE8D4F",
"%X c #978672",
"&X c #B18671",
"*X c #EAA44F",
"=X c #E49C76",
"-X c #F6976F",
";X c #D4AB7A",
":X c #D4A672",
">X c #FFAC7D",
",X c #FFB87B",
"<X c #F3B268",
"1X c #D29062",
"2X c #FDC95D",
"3X c #EBCD5D",
"4X c #FFE54B",
"5X c #FDEA53",
"6X c #FFF750",
"7X c #D8CD72",
"8X c #E3D26C",
"9X c #FFDC64",
"0X c #E8CB73",
"qX c #FFCC7E",
"wX c #EACB6A",
"eX c #FFE974",
"rX c #DFCB5A",
"tX c #D2A526",
"yX c #8173A4",
"uX c #AB96AE",
"iX c #D5AF8F",
"pX c #FFAC84",
"aX c #FCAA88",
"sX c #FEB485",
"dX c #FFB48A",
"fX c #FEB98B",
"gX c #FFBD84",
"hX c #FFAD96",
"jX c #FFB893",
"kX c #FCB797",
"lX c #E4B291",
"zX c #FFB7A0",
"xX c #EDB7AD",
"cX c #D7CD8B",
"vX c #CFCF89",
"bX c #E6C78B",
"nX c #FCC888",
"mX c #FFDF8A",
"MX c #EBC898",
"NX c #FACA94",
"BX c #FFD59B",
"VX c #FDE787",
"CX c #FDE498",
"ZX c #F8F291",
"AX c #DAC9BA",
"SX c #EAC8A4",
"DX c #FFDDA7",
"FX c #F0CBAC",
"GX c #F5E4BB",
"HX c #AB9AC8",
"JX c #C6BEE7",
"KX c #E8D5C1",
"LX c #F2E3CA",
"PX c #D3C9DF",
/* pixels */
"= . @ 4 2 . h % % = e z [.s.W.} n z $ $ $ . X . +   . $ q o o # + O @ X +   . @ + O 4 4 4 4 3 3 @ O ",
". O O 3 3 t % u.. O 9 h ) s.Q.~.|.j k . . + O O + < . . o o + + @ + # .   ; O   + @ 4 4 3 3 O O @ . ",
"u u r S F t : a y s L z ) } !.l.T.' B Z E 8 8 e . . p + = + + 5   # . 3 3 o r . q 7 q y q r 9 5 5 @ ",
"u 5 r L e r @ p u o r V ].E.!.!.~.E.B f Q 8 D 8 O . 5 4 X X     @ @ 9 e 3 8 Z e s s y q r 7 @ @ 5 @ ",
"S J s s 5 d w - F d V _ ~.!./.Q.s.' M / P 9 e H 3 L 6 7 # X 5 4 o   3 3 3 I q w r 7 5 p S e 5 5 q 3 ",
"8 L 5 O d : - 1.t 9 x I.^.l.!.l.B.v A Z R e 3 3 F 8 S Q   +   + @ q Q W E q w t r r y s H H r p p @ ",
"P H G G z ,.z w r V ` E.i.l.Q.X._ j n A R o 5 p 4 u y 4 s 3 % % f I Y 7 p a 3 e e q 5 s J F r q q @ ",
"H H G 0 V z V w V z _ E.k.l.W.'..._ { ,.A = . * y   u q 7 w %Xk w 5 L 5 1 %Xs J L r p q S F F s q o ",
"H H r r H F r w h ) } j.l.x.{.W.s.a._ ` m FXMXMXk = s r 5 p %Xm - F u X m +Xg i s 9 @ 7 L S F e 5 @ ",
"S 7 w r S J J 5 h |.J.l.!.x.`.9XqXb.3.c FXMXnXNXFXV w s u X e.l x w < X * 8.g 4 q 5 4 u J J F F s @ ",
"7 q w r e S K y l |.k.l.!.W.4X5XeXv ].N iXMXM.gXP.c m X 5 , 0. Xj k $ * #X8.> + . O 4 6 7 J H r q @ ",
"f f f d P S u s x ) j.x.s.9XOX6X3Xo.] [ ;XnXgXdXzXv k AXa * 0.%. Xj l #X0.w.$ a O @ 4 4 5 u 7 q q 5 ",
"+ # # # @ o   . h v ' N.9X6X5X5XeX<X#.#.NXnXgXNXlXv e.SX% $ % +.9.&.oX-.=.j % - . @ O + o + + @ 5 O ",
"O + X @ 3 O X = z 2.` '.tX5X5XeX2X'.gX#.o.:XNX:X=X] MXh &Xh * h &.,X_.M.c j j .X= 9 + + 8 3 @ O O O ",
"Q Q E R d 9 @ w V :.) *.VX2X2X*XnX`.] MXbXo.:XaX .C.bXB %.@XN @Xm.'.p.N. X[ @X0.m p r F H S p < q q ",
"U Q ! ! ! P f Z V C ` .._.*X<XgX`.p.o.M B MX| | P.kXB l %.&.$X%.M.p.p.m.-.#X%.8.m q 8 H H H 5 p 5 r ",
"U U E E W ! Z I H ^ C *.`.nX-X-X'. .O.,.>.A ` ` N N O.O.b <.<.x &.oX}.&.N w.w.* : q q r H S r q r q ",
"S F q r q q q q D H z v '.b.m.-Xa.' ' ` C ,.,.,.>.>.O.t.k - t m =.&.%.q.m Z w q r r r r S S r F r r ",
"F r r r S u i u H F q k l nX' =XgXn.a.L.I._ A >.>.>.] 5.h 9 q & l =.-.j Z G 9 P F L r r 7 7 7 r r s ",
"L 7 e r S J u 5 7 3 i @ >  X#. .dXm.A.g.d.I.[ N A ` hXP.x f @ , b 5.5.c Z P e r e F r q u 7 r s 7 r ",
"7 7 7 S F F 7 i i u i q h &X#.oXH.D.i.j.f.L.C.fX' ..zXC.c & * M SXNXbXSXM f d 5 7 u q u 7 S s S r r ",
"K 7 u S H H S u i + r d 0 1. X*.V.h.d.L.g.f.M.gXa.U.hXM.).SX{ iXMXMX;XBXM f y d p y u s u S S 7 s 7 ",
"u 5 7 S S 7 S q t V t t S V 3.d.d.;.` :.J.h.C.gXD.U.aXM.C.zX| | iX:X:XiXf / E I P s s 5 u J F 7 r q ",
"F s F 7 u u u r 0 V e e H 0 n ;.3.c C C J.d.M.fXU.v.dX(.$.oX..X.[ +.=.l Z / P U U Y s 7 7 F r r r r ",
"q r S 7 s p u u i q w r H e x j z z V j 3.*.$.dXF.T.pXM.%.&X{ { n e.4.j P Y T T T P F 7 7 F F e r 7 ",
"9 3 5 4 O   2 8 8 8 3 3 e e @ = 9 O = h j *.$.kXU.V.fX-.j k C x j 4.6.k e S G L H F q q F r 5 3 3 3 ",
"t t t s f f / / / Y E E P U Y / U r 4 = j ..d.V.zX5.lX4.Z Z ! Z M e.e.l d P P P P I E Q Q U Q P L s ",
"e r 6 5 q s L J Y Y d s r r u K Y U U   % 2.n.L.xXKXAXAX9 s o : k <.=.h : 7 7 q r r t P U U Q Q Q Q ",
"L s s 5 5 5 r r L s q q e e s K 8 / Y 5 * @.O.>.uXu.PXu.w r q a k e.<.k w J s r r q r r F P P U Q I ",
"7 u 6 w q p F H e r r s F t q u i s d . LXB @.1.uXHXJXJXLX, w $ k <.4.k q S r 7 q q q q 7 7 7 q I I ",
"J u r r 7 e F t r s u u F r 7 5 i > M bXbXBX] n y.HXuXuX+XvX> d x <.4.l r J S q s s r s r r r r P P ",
"K u q r r t H F r u 5 7 t F s p p > bX0X0XCX .3.! uX( u.$X$X, - k <.<.k q 7 L 7 r 7 5 q 7 J s u u d ",
"8 u r q r r r F 7 q 7 u F F s 5 < LXcX8X8XCXb.B.N M B B %.@XSXk j 4.<.* p s S S S q p s 7 u 7 7 r P ",
"S r F 7 r r 7 s r u r r q 7 s p g M ZX8XrXVXa.h.zXM N kX#.1XDXk c =.e.k q 5 J S F e 7 7 5 J s r r P ",
"r S 7 r F 7 r r F r r 7 r S S < g vX8XeXVXmXp.a.fX9.(.gXZ.@X$Xm N 2.w.* ; 7 S L L r 7 7 7 u 7 r P P ",
"r r 7 F 7 7 F S 7 S F 7 r r 7 < g ZX8XrX8XCXa.s.gX(.M.,XZ.$.$XcX=.e.<.M s J S 7 7 q F r F 7 7 7 I E ",
"S r F 7 r F 7 r S r r r F F 7 ; 1 7XZXVX0XBXd.f.aXM.M.>XH.b.@XCX%.+.l - r 7 L S r r F F S 7 r L Q E ",
"S r 7 r r 7 F 7 r r S S 7 7 r < GXcX7XCXBXn.L.d.fXM.N.fXF.n.@XbXq.=.h V r 6 s 5 7 r S 6 7 L P I I E ",
"r r 7 7 7 7 r s r 7 r r r 7 r q , LXGXv V.S.j.s.sXM.N.>XF.B.&Xl %.=.h w F r q y r r 7 H H U I U U I ",
"s 7 r s r s 7 r s r 7 s 7 s q q w M [ P.T.v.c.a.sX(.A.A.kXP.x % =.=.x r G r ; ; s 7 t F U / E I I I ",
"7 q q 7 r q r q s 7 q s 7 5 F I P Z [ P.F.v.s.p.jXZ.S.S.dX).+.N %.q.V W ~ E f f I U W W Q U P E q s ",
"3 4 3 3 4 3 4 3 2 o 3 4 5 4 3 5 6 0 v I.T.G.s.a.aXZ.G.G.pXZ.{ c &.%.- 6 3 3 X @ 4 4 2 3 3 3 O O O 3 ",
"4 4 5 4 4 4 4 4 3 4 5 7 q 5 5 q H z I.U.c.Y.h.b.fXN.S.G.>X$.5.) 9.=.Z Q W R I f / U I ! Q U I f I U ",
"q s q q q r 7 s q 5 5 q s s s r G 7.I.Y.~.K.f.a.fXC.S.G.>X$.*.' &.0.Z ~ ~ ! Z I Y I Z I P L q q 7 7 ",
"r q r 7 q 7 q q s 7 5 7 7 q 7 r 9 n d.F.K.R.j.g.a.V.U.F.fX$.n.B.&.0.: 7 t e r 7 Y I ( E P L q q 7 s ",
"7 7 7 q 7 7 7 7 s r r s s s r w C :.d.g.K.K.c.g.n.hXU.U.Z.sXa.n.$.q.: S G F t r u J f t F F 7 s s r ",
"F r L r L r F s 7 7 r r S r 7 z I.d.h.g.K.v.z.s.N.dXc.D.m.fXn.n.M.O.w L e G F 8 K u p w S H s u 7 r ",
"r 7 r S r S 7 7 7 F S r r 7 F V 3.d.d.f.j.c.k.s.N.pXH.S.N.sX$.B.-.[ ; J 6 G F J u u p w F H u 6 r r ",
"s r s 7 L 7 u 7 7 J J 5 r 7 q V 2.3...J.f.f.g.s.N.pXD.S.N.sXb.-.=.B w 7 e L q F S s q r r F 7 s 7 r ",
"r 7 r r U Y / U / Y U u L r 7 0 j ) ' J.f.f.g.a.Z.pXD.S.N.sXb.B.4.B Z r 7 u 6 r 7 s 7 r r r r 7 u r "
};
