/* XPM */
static char *e2ec73780dae4ad1b155ccc8aecbefd6pC4BXM9iqw9OjKyh[] = {
/* columns rows colors chars-per-pixel */
"50 50 146 2 ",
"   c #07070A",
".  c #09070C",
"X  c #0A080C",
"o  c #190E08",
"O  c #171307",
"+  c #1D1007",
"@  c #15140F",
"#  c #1C130D",
"$  c #1E1B0C",
"%  c #0E0C14",
"&  c #0F0D1B",
"*  c #110E16",
"=  c #100E1C",
"-  c #151317",
";  c #1D1312",
":  c #14121B",
">  c #1B171E",
",  c #1D1A1A",
"<  c #23150B",
"1  c #2E1C0B",
"2  c #331F07",
"3  c #321B09",
"4  c #201211",
"5  c #221B16",
"6  c #2C1F17",
"7  c #271D19",
"8  c #281D19",
"9  c #3E2306",
"0  c #35200D",
"q  c #3C230C",
"w  c #252214",
"e  c #2E2C15",
"r  c #23211D",
"t  c #2D2A1C",
"y  c #372517",
"u  c #302D1C",
"i  c #3C3215",
"p  c #3B361E",
"a  c #3F391C",
"s  c #1D1721",
"d  c #1E1A24",
"f  c #1E1A28",
"g  c #201A26",
"h  c #201A28",
"j  c #17212D",
"k  c #222225",
"l  c #2C2C24",
"z  c #24232A",
"x  c #312F22",
"c  c #353223",
"v  c #3A3624",
"b  c #3D3A27",
"n  c #393728",
"m  c #3F3C29",
"M  c #2F2D34",
"N  c #3F3F3F",
"B  c #412306",
"V  c #432709",
"C  c #412A0E",
"Z  c #4D2C0A",
"A  c #522E09",
"S  c #4F310F",
"D  c #55300A",
"F  c #5A3409",
"G  c #5D380E",
"H  c #402810",
"J  c #453011",
"K  c #413C1F",
"L  c #553919",
"P  c #583A1D",
"I  c #62370B",
"U  c #63380B",
"Y  c #423E21",
"T  c #413C29",
"R  c #64441B",
"E  c #474326",
"W  c #43412B",
"Q  c #48432B",
"!  c #4E4B2A",
"~  c #534020",
"^  c #464330",
"/  c #494632",
"(  c #4B4931",
")  c #544434",
"_  c #524E34",
"`  c #504E39",
"'  c #5E4D39",
"]  c #555133",
"[  c #5B5837",
"{  c #575338",
"}  c #595439",
"|  c #5E5A3C",
" . c #605331",
".. c #695935",
"X. c #645F3C",
"o. c #3C3B41",
"O. c #424242",
"+. c #4D4D43",
"@. c #4A4A4A",
"#. c #505046",
"$. c #52524A",
"%. c #585752",
"&. c #595951",
"*. c #555459",
"=. c #5A5A5D",
"-. c #625E40",
";. c #745C40",
":. c #605F5A",
">. c #666141",
",. c #696544",
"<. c #6E6946",
"1. c #6D6848",
"2. c #616157",
"3. c #62635E",
"4. c #6A6A5E",
"5. c #605F64",
"6. c #656562",
"7. c #6A6B66",
"8. c #6A6B69",
"9. c #7A7967",
"0. c #71716E",
"q. c #747471",
"w. c #84847C",
"e. c #828280",
"r. c #8C8D85",
"t. c #8E8D88",
"y. c #8E8F89",
"u. c gray56",
"i. c #8E8E8E",
"p. c #8F908B",
"a. c #90908E",
"s. c #91918F",
"d. c #909090",
"f. c #939290",
"g. c #959593",
"h. c #979998",
"j. c #9A9A9A",
"k. c #9B9D9A",
"l. c #A2A2A0",
"z. c #A3A3A1",
"x. c #A7A7A5",
"c. c gray68",
"v. c #AFAFAF",
"b. c #B1B1AF",
"n. c #B1B1B1",
"m. c #B2B2B2",
/* pixels */
". . . . . . . . . . . . . . . . . . . . . . . . . . . . . . . . . . . . . . . . . . . . . . . . . . ",
". . . . . . . . . . . . . . . . . X . . . . . . . . . . . . . . . . . . . . . . . . . . . . . . . . ",
"= = = = = = = = & = = = = f h g h g d g g . . = . . = . . . . . . . . . . . . . = = = = = = . = = . ",
"= = = = = = = = & = = = = = & = = g g g g . . . . . = . . . . . . . . . . . g = = = = = = . = . = . ",
"= = = = & : & & = = = = = = = = = g g g g . . . X = . = . X . . . . . . . g & = = = = = = = . = & . ",
"= & = = = = & & = = = = = = = = = = g g g . . . = . = = X . . X . . d g g = = & = = = = = = = = = . ",
"= = = = = = = = = = = = = = = = = = h g g . X = . = = = = . . . g g g = = = = = = = = = = = = = = . ",
"= = = = = = = = = = = = = = = = = = g g h . . = = . = = = = = = = = = = = = = = = = = = = = = = = . ",
"& = = & = = = = = = = = = = & = : = & g f . . & = = = = = = = = = = = = = = = = = = . = = = = = & . ",
": & = = = = = = = = = = = & = = & = = & g . . = = = d.d.d.u.= = = = = . = . = . = . . = = = = = = . ",
"= = = = = = = = = = & h g g h = = = = g g . . = = d.d.d.u.u.u.= . = . = . = . = . . . = = = = = = . ",
"g h h f = = = = & = = g g h g d f h g g = . . . = q.0.0.0.q.q.= = . = . = = = = . X . . . = = = = . ",
". . . . . . . . . . . . . . . . . . . . . . . . . 7.<.<.4.7.<.. . . . . . . . X . X . . . . . . . . ",
". . . . . . . . . . . . . . . . . . . . . . . . . <.>.t + 6.O . . . . . . . . X . X . . . X . . . . ",
"g g g h d . . = = : & & h g g g g g h h d d g & = c Q Q $ m $ g g = = . g g g g h = = = = = = = = = ",
"g g g g g g g g s d.d.=.d g d g = = = = z k f & & - u W | T r g g g = . g g = = = = = = = = = = = = ",
"g h g g g h h h 7.7.8.8.6.& h & & = = N t.t.r.= r T e $ n 5 * & = g g = h g = = = = = o.= = = = = = ",
"& = = & = = = = 3.7.7.7.g.= = & = l -.^ / w.;.v T T t % % v & - = g g = g g = = & = : c.: = = = = = ",
"= = = = = & & o.7.7.7.7.7.l.= & : _ T T m p D K <.<.m T = = & & = g h = h = = = = = n.M = = = = = = ",
"= & = = = = & / 8.7.7.7.7.l.& = | b v m W m L U Y <.Q } = = & & h g g = g = = = = m.5.= = = = = = = ",
"= = = = = = = @.7.7.7.7.7.x.- | n * * m <.! ~ U  .| ,.( % & & g g d g = g g : s m.*.= = = = = = = = ",
"= = = = = = : 3.7.7.7.8.7.e._ m = = n T _ { ,.S 9 | ] <.- & = g h g g = g g u.m.h = = = = = = = = = ",
"= = = = = = j 7.7.7.7.7.7.7.b & = = c T m m } J 9 E X.{ s = d h h g g = d k.b.g h = = = = = = = = = ",
"= = = = = : g 7.7.7.7.7.7.7.m & = = x <.1.-.m q 9 <.>.] g g g g g g g = d n.M g h g = = = = = = = = ",
"= = & = = = z 7.7.7.7.7.7.7.T - & & & % m T m m B i & m > s g d g w 7.c.b.=.g g g g = = = = = = = & ",
". . . . . . > 7.7.3.7.$.7.7.T   X X X w m m X 5 < & : - | -.: j.j.g 2.7.s.= = = = = = = = = = . . . ",
"= & & = d f z 7.7.+.&.%.7.7.T T f X X - m n 8 8 8 8 f s c m w.a.9.>._ 8.6.g g g g g g g g g g g g & ",
"= = = = - & d 7.7.+.#.7.7.7.= > d d y L L 3.' L V V = = & & : : 7.` * = : = = = = = = g g g g g g g ",
"= = & & & & & o.7.7.7.7.8.$.= = & 6 L P P 8.) 9 I 9 3 = = = = = 7.: = = = = = = = = = = = & g g g g ",
"= = = = & : = O.7.7.7.7.7.+.= & - L V 9 9 9 A U B B Z ; = = = = = = = = & = = = = = = = = = = = g g ",
"= = = = = & s O.7.7.7.7.$.& = = & < 9 V 9 I U U 9 9 Z ; = = = = & = & = = = = = = = & = = = = = & g ",
"= = = = & & & @.7.7.7.6.$.= & = % B 9 U A U U U 9 9 9 ; = = = = = = = = = = = = = = = = = = = & & g ",
"= = = = = = & = 8.7.7.3.+.= & & % 9 9 U U U U U * 2 K Y = = = = = = = = = & = = = = & & & = & = = g ",
"& = = = = = = = 3.8.6.+.: = = = % 9 9 U U U U * = & * ' : = = & = = & - = & = = = = s = & & = = & g ",
"= = = = = = = = & +.+.z = = = = & ; a U U U U * = = * K X.* & & = = & & & & = = = & = = = = = = = g ",
"= = = = = = = = & & & & = = = = - , G U U U U * = = = - K ,.= & = = = & : & = = = = = = = = = = f d ",
"& = = & = = = = = = = = = = = = & , U U U U U ; = = = - p [ <._ = & = = = = = = = = = = = = = = g g ",
"= = = = = = & = = = = = = = = = - , ..U U U U U = = = = % a ! - = = = = & = = = & = = = = = f f g g ",
"= = = = = = = = = = = = = = = = - 1.<..   s d d g g g = y K K = = = = = = = = = = = = = & f f h g g ",
"= = = = = = = = = = = = = = = = - ] K . X g g h g g g f q K K 3 = = = = = = = = = & = = h g g g g g ",
"= = = = = = = = = = & = = = = g > K p . . g g g g g g g C K B 2 g h d g g h d g g g g d g g g g = = ",
". . . . . . . . . . . . . . . . G K . . . . . . X . X o U U D + . . . . . . . . . . . . . . . . . . ",
". . . . . . . . . . . = = = = 1 F C & = = = = = g g g 4 U U 9 g . = g g g h h g g g g g g g g g g g ",
"= = = = = = = = & & = = = = Z U D ; g d g g g g g g g 8 U U B g . g g g g g h h g g g g g = = = = = ",
"= = & = = = = = = = = = = = U B < = = = = = = = = = = ; I U g = . h = = = = = = g g g g g = = = = = ",
"= = = = = = = = = = = & = A I 9 < = = = = = = = = = = ; U I g = . = = = = = = = = g g = = = = = = = ",
"= = = = = = = = = = = = = A q < = = = = = = = = = = * U I B g = . = = = = = = & = = = = = = & = = = ",
"= = = = = = = = = = = = q B B = = = = = = = = = = = = U A 9 g = . g = = = = = = = = & = = = = = = = ",
"= = & = & & = = = = = - R B % & & & = = = = = = = = = ; 9 9 1 = . g & = = = = = = = = = = = = = = = ",
"= = = = j j j j j j j : K K ,.: & : & & = = = = = f s i 9 9 9 1 . g h = = = = = = = = = = = = = = = "
};
