/* XPM */
static char *b5d6e70cb63d42b7a06d3462c292fbb6FS4RoK1nG5cJpqPY[] = {
/* columns rows colors chars-per-pixel */
"50 50 188 2 ",
"   c #060406",
".  c #090606",
"X  c #06040C",
"o  c #09060D",
"O  c #0B090E",
"+  c #060312",
"@  c #090612",
"#  c #0D0A14",
"$  c #060219",
"%  c #0D061B",
"&  c #0E0C1B",
"*  c #100E16",
"=  c #12071F",
"-  c #110E1C",
";  c #0E101D",
":  c #121116",
">  c #14121F",
",  c #15131E",
"<  c #14111E",
"1  c #16141F",
"2  c #13111D",
"3  c #19131F",
"4  c #1A151C",
"5  c #19131F",
"6  c #0D0521",
"7  c #0E0B21",
"8  c #0F0829",
"9  c #130623",
"0  c #110C20",
"q  c #120F20",
"w  c #110C23",
"e  c #100D22",
"r  c #130F22",
"t  c #150E20",
"y  c #150D22",
"u  c #140F26",
"i  c #150E26",
"p  c #130C23",
"a  c #190C26",
"s  c #150C2A",
"d  c #1B0D2A",
"f  c #111020",
"g  c #121121",
"h  c #141021",
"j  c #141220",
"k  c #171323",
"l  c #151122",
"z  c #171324",
"x  c #151222",
"c  c #1A1323",
"v  c #1D1721",
"b  c #1A1325",
"n  c #181327",
"m  c #1B1725",
"M  c #1B1726",
"N  c #191526",
"B  c #1A1524",
"V  c #191820",
"C  c #1A1823",
"Z  c #1B1821",
"A  c #1C1922",
"S  c #1B1924",
"D  c #1C1A25",
"F  c #1D1B26",
"G  c #1E1A26",
"H  c #1E1C27",
"J  c #1D1A25",
"K  c #16112A",
"L  c #1E1729",
"P  c #1D1628",
"I  c #1A112C",
"U  c #1C132E",
"Y  c #1C132B",
"T  c #1D1928",
"R  c #1E1A28",
"E  c #1E1A2B",
"W  c #1F1D28",
"Q  c #1E192D",
"!  c #1D1B2A",
"~  c #1C0F31",
"^  c #1F1631",
"/  c #1D1332",
"(  c #1C1933",
")  c #201D26",
"_  c #201A26",
"`  c #21152F",
"'  c #201D28",
"]  c #201C2B",
"[  c #211E29",
"{  c #221E2C",
"}  c #231F2E",
"|  c #211C2B",
" . c #221433",
".. c #211C32",
"X. c #241F33",
"o. c #251D35",
"O. c #231B33",
"+. c #281C34",
"@. c #25163A",
"#. c #291739",
"$. c #261B39",
"%. c #2B1D3D",
"&. c #25212F",
"*. c #22202D",
"=. c #242233",
"-. c #282035",
";. c #292136",
":. c #26223A",
">. c #2A2639",
",. c #2B223C",
"<. c #2D2938",
"1. c #31223E",
"2. c #302B3F",
"3. c #322E3F",
"4. c #261C42",
"5. c #2D1F43",
"6. c #2A1F49",
"7. c #2C2244",
"8. c #2F2945",
"9. c #2E234B",
"0. c #2F2A4A",
"q. c #332344",
"w. c #382544",
"e. c #312C40",
"r. c #332A45",
"t. c #342B45",
"y. c #392A45",
"u. c #33254A",
"i. c #392649",
"p. c #352B4B",
"a. c #392C4B",
"s. c #363240",
"d. c #353146",
"f. c #3A3647",
"g. c #3C3846",
"h. c #36314A",
"j. c #3A334C",
"k. c #3A384E",
"l. c #3B2E52",
"z. c #373252",
"x. c #3C3354",
"c. c #3F3A56",
"v. c #3E345D",
"b. c #40334D",
"n. c #412F55",
"m. c #423554",
"M. c #433B54",
"N. c #493C56",
"B. c #42355A",
"V. c #443B5B",
"C. c #4A3C5D",
"Z. c #413661",
"A. c #423963",
"S. c #4B3D62",
"D. c #454057",
"F. c #46415B",
"G. c #4B445E",
"H. c #4D4364",
"J. c #4E4A65",
"K. c #4E466B",
"L. c #4F496B",
"P. c #514265",
"I. c #534D66",
"U. c #53476C",
"Y. c #534C6C",
"T. c #584D6C",
"R. c #56516D",
"E. c #59536F",
"W. c #564D73",
"Q. c #5B4D74",
"!. c #5E4F78",
"~. c #5B5473",
"^. c #5C5871",
"/. c #5C537A",
"(. c #635F76",
"). c #62527B",
"_. c #635B7C",
"`. c #655C82",
"'. c #6D6282",
"]. c #69618A",
"[. c #716B8D",
"{. c #756B90",
"}. c #787097",
"|. c #7E75A0",
" X c #837BA2",
".X c #948CB3",
"XX c #998FB2",
"oX c #9C94BD",
/* pixels */
"o o o o o o o o o o o o o o o o O . O . @ X # X X O       O . O . . . . # O o . o o o o O X O O . . ",
"@ o o @ @ o @ o @ o o o @ o o o * O @ X X o O X O O   O O O . X . . O . . o o O @ o @ o X O O X O X ",
"* : & : & : & : & : 2 : , 4 H H v 4 Z Z ! @ X :   O :   o X @ O . o O O O o o o * * < * : # # # O O ",
"& - * & & * ; & - & & & & ; ; 2 3 _ { [ [ @   # O O : O o X # o # O X X o = < 5 * = 5 * : # # # : O ",
"& & & & & & & & f g 2 f & 2 - & = P [ k R < O   * o @ - # @ # $ + @ @ # * < k - - - & - & # % @ : O ",
"q q - q 2 q q f % & & & q 2 7 7 y - Q >.s.) # # @ * * - - } P @ @ - C G P - - # - - - * q - 2 * : o ",
"& & 7 ; 7 & & & g g f f 7 & & & i % Q f.g.< o # o # * - - X.+.= P G m y & & - k - - - - & & ; - # o ",
"7 ; & ; ; & f & & & & & ; ; f f q i ,.e.=.X X : : @ - y - # b c q q - - - * - # - - - - & 2 2 ; : O ",
"2 & 2 & & - & - & & - & & & 2 f u d >.<., o o # : 2 & % q - y L q n & - - # < * ; # X : : ; & & # O ",
"& 2 ; & - - - - 2 & 2 k - * & % 6 Q e.R *.@ o ; & 2 - q y & - b b & - $ < @ * # : O # : 2 : ; : : O ",
"& * * * * * - * : # 2 C C G G - n / 8.- &   # * 2 f 7 q = - - P R l # - + * X # X X X # ; : : ; : O ",
"! ! S S k * * - ; # 2 C C G [ P o.t.O.l * & @ + % e e e - = # # X.b % # - * * : X O O # # # # : * O ",
"@ o @ @ @ X X @ # o @ # @ @ @ # O.H.n $ & + $ <.t.h.0./ % # - = ;.o.& $ @ X @ o X X X X X @ @ @ O . ",
"@ @ @ # @ o @ # @ @ X @ @ X X - t.N.n + @ + d.(.[.[.`.c.s $ @ @ } y.9 % $ # o @ # O O O @ @ @ $ @ o ",
") _ _ _ c * # * * < * 5 _ _ _ ;.I.7.K e ( =.R.^.E./.`.Y.r.Q P c a r.%.$ | _ _ Z 4 : : : - - - 2 * - ",
"_ H [ [ _ m P _ - - # * _ | P +.T.$.e 9 g N z.R./.W.W.H.u.| a < p a.,.% | | - : < # # ; 2 & & 7 - - ",
"R ! ! E R R R ! - 2 & - & 7 N c.G.d a = 9 n ,.7.B.U.u.u.@.p y - = 1.b.a _ | % - - & * & ; 7 ; & - - ",
"& 2 & & 7 q - ; 2 - & q 7 7 ( J.C.a a = i i %.l.p.S.l.i.@.w = = a #.N.` ` | - - < - - ; ; ; ; f - - ",
"* ; & 2 & q - - 2 & ; - 7 7 Q E.n.a a a 9 6 7.V.H.W.S.n./ 9 - p d ` C.| ` - y - & 2 & f 7 & & q - - ",
"- - - & q & - & & & , & 7 7 K E.q.s d 9 w 9 7.S.Q.U.W.B.U 9 = a = d N.+.P 9 y * & & 2 & & & 7 - & - ",
"& & & & & & & & # & k & 7 f ( E.#.a d 9 @.q.l.S.B.n.S.S.q.,.i 9 9 d b.1.P P y - & & - & - - - w - & ",
"2 - 2 2 q 2 q - * - 2 $ 7 K 8.E. .9 9 d u.S.C.S.l.u.n.S.S.C.+.w 9 d 1.y.d ` _ y - q - - & - - - - - ",
"& & & & & & & & & 2 & & f 7 h.Y.~ d 9 9 t.H.S.S.n.9.n.S.C.V.$.9 s d 1.y.P  .| P P k * - - - p w - - ",
"- 2 - 2 2 - 2 : & & - g e % h.J.d d a 9 #.m.x.S.u.u.m.S.m.a./ % a d %.y.d | | | } C - & - - - - - - ",
"& & q 7 2 & ; - ; ; & & % 7 I.c.a 9 9 s 6 %.m.V.q.q.a.C.b.d s d s a ~ m.a | P _ _ m q & - q - & - - ",
"$ # @ $ @ @ @ @ o X @ # % 7 J.z.a d = 6 6 5.m.V.u.q.a.V.u.` s 6 d d  .b.p P = - y - - * - * % @ @ @ ",
"& 7 f l C ! ! ! W [ ! H Q ( E.F.= a 9 % 9 ~ 5.7.#.d %.q. .~ / s 9 s / N.d | Q P m m G R | | R R < - ",
"& & & & ; 2 , , S S S k 7 7 J.k.d d s 6 8 ~ v.U.i.#.m.N.%.s s 8 ~ a / N.a y w k - - k b m m R R | _ ",
"q q q 7 & & & # : : 2 & 7 8 Y.V.= P C._.`.K.W._.l.%.P.T.H.W._./.p.U U M.a % % & - * - - 2 V m L _ _ ",
"& & & & & 2 2 2 # # ; - f g Y.c.d 1._.XX.X{.W.`.S.l.T.H.W. XoX.XS./ s M.Q i l q & & & & & & & - G _ ",
"q q f & & & & # * : 2 f 7 8 U.c.9  .T.{. X].Z.`.U.c.W.B.Y.{.}.`.x.~ / M.n % e & 2 2 2 2 - - - - k C ",
"- 7 - 7 2 2 & : ; ; & & & K R.V.s a %.n.W.K.4.!.!.B.W.p.l.W.K.v./ 6 O.V.u & l - & & & & - - - - * C ",
"7 q 7 - & 2 & - & 2 & g % K G.J./ 7 i % +.y.~ v.!.Z.S.#.O.t.:.e K $ p.M.K & e & & & ; ; * & * - - _ ",
"q & 7 - & 2 ; - 2 & & f 7 7 h.^.p.7 @ # - k d 5.Q.Q.m.a c c % y $ / D.h.q 7 g 7 & & & & & - - - - P ",
"& q - - 2 & & & - & 2 & e 7 g F.F.O.- $ X % d 4.Q.).i.i y = % i y p.G.:.7 e & - ; - & & - * - - 3 v ",
"q - & - & & 2 2 & & k % g g $ ( p.h.O.+ % a a  .).Q.a.` - = i 9 >.j.e.z q l % - & ; 2 2 - - - - G _ ",
"& & - & 2 & * * - * - & 7 z e 7 ( 7.( + = a 9 u.).!.m.d d = - a o.O.a % - l = * & - q * & * - k ) _ ",
"- - & : & : & : 2 & & f & % K 7 7 6 7 7 a s ~ Z.U.C.S.#.d a d y p p 9 - - - - - - - * & * * C G _ _ ",
"- - - & & * : & & & & V ; % ; 7 K s K K U a ~ n.i.4.i.5.d a ` p 9 a i p w - - - - * * * < C _ _ H G ",
"& - & 2 : & & - * : & & ; 2 f z h.H.x.7.7.@.~  . . . .~ ` ` d  .` | - = < = * - - * # < v [ _ _ ! R ",
"& : * ; : ; & : - * ; : & # f Q k.^.`.`./.c.i.a.i.i.i.i.1. .`  .n c a P _ _ T T [ G S ! ! Z G _ * * ",
"@ $ @ @ @ X @ @ X @ $ # @ @ @ & ; 7.c.L.H.z.u.u.i.i.i.u.1.d 9 a = = % % & $ @ # @ + o o @ @ O @ o @ ",
"# @ # $ @ @ # $ % @ # # & & # & ; ( z.A.9.4.4.%.#.%.#.w.#. .a a p y n | R R G S *.H H H ) ) R R ! ! ",
"; & * ; & ; - & ; # % ; 2 ; & f ( :.L./.Z.9.9.5.1.1.#.q.w.#.d d p P Q | | | ! E C G H C v - - - & & ",
"& : - & 2 & - 2 2 & & & & & & : 7 ( L./.Z.u.q.q.w.w.w.i.q.#.d d a y 3 - & & - 2 C ! *.! m f - - f 2 ",
"& & ; & & & & & 2 f 2 2 ; & & 2 ; :.K./.Z.9.u.w.1.1.1.i.u.#.d a 9 = q - & & - & g V C k * & * - & 2 ",
"- 2 2 - f - - 2 & & & 2 & & & & % :.K./.Z.9.q.q.w.1.w.i.i.#.d i = w w - 7 2 ; # ; , 2 ; & & y 2 - & ",
"& - - - - ; & ; & & & & 2 - 2 2 =.c.K.W.Z.6.u.w.1.1.q.w.u.#.d i ;.X.n w & & f ; # ; ; & - 2 - & f & ",
"f - q & f ; & ; ; ; ; ; ; ; & f K 8.J.W.v.9.9.0.0.7.7.p.7.7.7.7.O.Q q & y q % - - - - & - - - - & 2 ",
"- - - - R ! ! ! ! ! ! ; ; ; & # f K ( 0.0.7.9.7.9.7.7.9.7.7.4.( q Q L q - - & k & * & q - & 7 q - & "
};
